<svg width="892" height="165" viewBox="0 0 892 165" fill="none" xmlns="http://www.w3.org/2000/svg">
<path d="M48.5192 27L36.8077 54.6757H163.125L174 27H48.5192Z" fill="#F5F5F5"/>
<path d="M94.5288 155H77.7981L107.077 71.973H160.615L148.067 101.378H113.769L94.5288 155Z" fill="#F5F5F5"/>
<path d="M20.0769 155H0L21.75 89.2701C25.9327 78.8918 26.1466 74.471 31.7885 71.2846C31.7885 71.2846 80.3077 67.8251 85.3269 71.2846C90.3462 74.7441 90.3462 80.6214 88.6731 89.2701C87 97.9187 69.4327 155 69.4327 155H48.5192L62.7404 106.567H35.9712L20.0769 155Z" fill="#F5F5F5"/>
<path d="M176.73 155L197.14 49.7H220.93L241.21 155H221.32L217.55 131.86H200.91L196.88 155H176.73ZM202.86 118.73H215.47L209.1 76.22L202.86 118.73ZM280.633 156.43C272.659 156.43 266.463 155.087 262.043 152.4C257.623 149.627 254.503 145.683 252.683 140.57C250.949 135.37 250.083 129.087 250.083 121.72V49.7H271.273V124.71C271.273 127.31 271.446 129.867 271.793 132.38C272.226 134.893 273.093 136.93 274.393 138.49C275.779 140.05 277.859 140.83 280.633 140.83C283.493 140.83 285.573 140.05 286.873 138.49C288.259 136.93 289.126 134.893 289.473 132.38C289.819 129.867 289.993 127.31 289.993 124.71V49.7H311.183V121.72C311.183 129.087 310.273 135.37 308.453 140.57C306.719 145.683 303.643 149.627 299.223 152.4C294.803 155.087 288.606 156.43 280.633 156.43ZM336.029 155V65.69H319.779V49.7H373.599V65.69H357.609V155H336.029ZM411.642 156.43C403.929 156.43 397.819 155.043 393.312 152.27C388.805 149.497 385.555 145.553 383.562 140.44C381.655 135.24 380.702 129.043 380.702 121.85V82.59C380.702 75.3967 381.655 69.2433 383.562 64.13C385.555 59.0167 388.805 55.1167 393.312 52.43C397.819 49.7433 403.929 48.4 411.642 48.4C419.442 48.4 425.595 49.7867 430.102 52.56C434.695 55.2467 437.945 59.1467 439.852 64.26C441.845 69.2867 442.842 75.3967 442.842 82.59V121.85C442.842 129.043 441.845 135.24 439.852 140.44C437.945 145.553 434.695 149.497 430.102 152.27C425.595 155.043 419.442 156.43 411.642 156.43ZM411.642 140.96C414.415 140.96 416.452 140.353 417.752 139.14C419.052 137.84 419.919 136.15 420.352 134.07C420.785 131.903 421.002 129.607 421.002 127.18V77.39C421.002 74.9633 420.785 72.71 420.352 70.63C419.919 68.55 419.052 66.9033 417.752 65.69C416.452 64.39 414.415 63.74 411.642 63.74C409.042 63.74 407.092 64.39 405.792 65.69C404.492 66.9033 403.625 68.55 403.192 70.63C402.759 72.71 402.542 74.9633 402.542 77.39V127.18C402.542 129.607 402.715 131.903 403.062 134.07C403.495 136.15 404.362 137.84 405.662 139.14C406.962 140.353 408.955 140.96 411.642 140.96ZM457.164 155V49.7H501.624V64.26H478.614V92.73H498.114V107.68H478.614V155H457.164ZM541.769 156.43C534.056 156.43 527.946 155.043 523.439 152.27C518.932 149.497 515.682 145.553 513.689 140.44C511.782 135.24 510.829 129.043 510.829 121.85V82.59C510.829 75.3967 511.782 69.2433 513.689 64.13C515.682 59.0167 518.932 55.1167 523.439 52.43C527.946 49.7433 534.056 48.4 541.769 48.4C549.569 48.4 555.722 49.7867 560.229 52.56C564.822 55.2467 568.072 59.1467 569.979 64.26C571.972 69.2867 572.969 75.3967 572.969 82.59V121.85C572.969 129.043 571.972 135.24 569.979 140.44C568.072 145.553 564.822 149.497 560.229 152.27C555.722 155.043 549.569 156.43 541.769 156.43ZM541.769 140.96C544.542 140.96 546.579 140.353 547.879 139.14C549.179 137.84 550.046 136.15 550.479 134.07C550.912 131.903 551.129 129.607 551.129 127.18V77.39C551.129 74.9633 550.912 72.71 550.479 70.63C550.046 68.55 549.179 66.9033 547.879 65.69C546.579 64.39 544.542 63.74 541.769 63.74C539.169 63.74 537.219 64.39 535.919 65.69C534.619 66.9033 533.752 68.55 533.319 70.63C532.886 72.71 532.669 74.9633 532.669 77.39V127.18C532.669 129.607 532.842 131.903 533.189 134.07C533.622 136.15 534.489 137.84 535.789 139.14C537.089 140.353 539.082 140.96 541.769 140.96ZM587.291 155V49.7H614.591C621.698 49.7 627.765 50.5233 632.791 52.17C637.905 53.73 641.805 56.5467 644.491 60.62C647.265 64.6933 648.651 70.3267 648.651 77.52C648.651 81.8533 648.261 85.71 647.481 89.09C646.788 92.3833 645.488 95.2867 643.581 97.8C641.761 100.227 639.161 102.177 635.781 103.65L650.341 155H628.371L616.281 107.29H608.741V155H587.291ZM608.741 94.55H614.981C618.448 94.55 621.178 93.9867 623.171 92.86C625.165 91.7333 626.551 90.0433 627.331 87.79C628.198 85.45 628.631 82.59 628.631 79.21C628.631 74.3567 627.721 70.6733 625.901 68.16C624.168 65.56 620.875 64.26 616.021 64.26H608.741V94.55ZM691.444 156.43C683.644 156.43 677.447 154.957 672.854 152.01C668.347 149.063 665.184 144.99 663.364 139.79C661.544 134.503 660.634 128.393 660.634 121.46V83.63C660.634 76.35 661.544 70.11 663.364 64.91C665.184 59.6233 668.347 55.55 672.854 52.69C677.447 49.83 683.644 48.4 691.444 48.4C698.984 48.4 704.877 49.6567 709.124 52.17C713.457 54.6833 716.49 58.2367 718.224 62.83C720.044 67.4233 720.954 72.7533 720.954 78.82V87.66H700.154V77.78C700.154 75.3533 700.024 73.1 699.764 71.02C699.504 68.8533 698.767 67.12 697.554 65.82C696.427 64.4333 694.434 63.74 691.574 63.74C688.714 63.74 686.634 64.4333 685.334 65.82C684.034 67.2067 683.21 69.0267 682.864 71.28C682.517 73.4467 682.344 75.8733 682.344 78.56V126.4C682.344 129.347 682.56 131.947 682.994 134.2C683.514 136.367 684.424 138.057 685.724 139.27C687.11 140.397 689.06 140.96 691.574 140.96C694.347 140.96 696.297 140.31 697.424 139.01C698.637 137.623 699.374 135.803 699.634 133.55C699.98 131.297 700.154 128.913 700.154 126.4V116.13H720.954V124.84C720.954 130.993 720.087 136.453 718.354 141.22C716.62 145.9 713.63 149.627 709.384 152.4C705.137 155.087 699.157 156.43 691.444 156.43ZM734.049 155V49.7H779.939V64.52H755.499V92.47H774.349V107.42H755.499V140.44H780.199V155H734.049Z" fill="white"/>
</svg>
